<svg width="268" height="117" viewBox="0 0 268 117" fill="none" xmlns="http://www.w3.org/2000/svg">
<g clip-path="url(#clip0)">
<path d="M38.0954 48.2116C37.993 48.1092 37.993 48.1092 37.993 48.2116C37.993 48.314 38.0954 48.314 38.0954 48.2116ZM13.7224 19.8573C13.7224 27.3297 13.7224 34.9045 13.7224 42.377C13.7224 44.2195 13.7224 46.1644 13.7224 48.0069C13.7224 49.1329 13.8248 50.2588 14.8489 50.9754C15.9754 51.7943 17.6139 51.4872 18.9452 51.4872C20.7885 51.4872 22.6319 51.4872 24.4752 51.4872C25.8065 51.4872 27.0354 51.2825 27.6498 49.9518C28.3667 48.5187 27.9571 46.4714 27.9571 44.936V32.3455V21.188C27.9571 19.4478 28.1619 17.6053 27.9571 15.8651C27.8546 14.7392 27.445 13.7155 26.3185 13.6132C24.68 13.4085 22.8367 13.6132 21.1982 13.6132C19.5597 13.6132 17.8187 13.4085 16.1802 13.7155C13.108 14.125 13.7224 17.6053 13.7224 19.8573ZM27.6498 102.054C28.2643 100.723 27.9571 98.7785 27.9571 97.3455C27.9571 93.0462 27.9571 88.747 27.9571 84.5502C27.9571 80.7628 27.9571 77.0777 27.9571 73.2903C27.9571 71.6525 28.1619 69.7077 27.8546 68.0699C27.6498 66.9439 27.0354 66.2274 25.9089 65.9203C24.3728 65.5108 22.5295 65.7155 20.9934 65.7155C19.3548 65.7155 17.5115 65.5108 15.873 65.8179C12.9032 66.4321 13.62 70.4242 13.62 72.5738C13.62 80.1486 13.62 87.6211 13.62 95.1959C13.62 96.936 13.5176 98.7785 13.62 100.519C13.7224 101.542 14.1321 102.361 15.0537 102.873C16.2826 103.487 17.9211 103.18 19.2524 103.18C21.0958 103.18 22.8367 103.18 24.68 103.18C25.9089 103.078 27.1378 103.078 27.6498 102.054ZM41.4748 106.865C41.27 108.912 40.2459 110.55 38.8122 111.983C37.8906 112.802 37.0713 113.723 36.1496 114.542C35.3304 115.361 34.5111 116.18 33.2822 116.385C32.1558 116.59 30.9269 116.385 29.698 116.385C28.2643 116.385 26.8306 116.385 25.3969 116.385C20.0717 116.385 14.8489 116.385 9.52373 116.385H6.04188C4.813 116.385 3.37929 116.487 2.15041 116.282C0.409481 115.975 0.102259 114.645 0.102259 113.109C0.102259 107.786 0.102259 102.566 0.102259 97.2431C0.102259 86.8022 0.102259 76.2589 0.102259 65.8179V58.0384V26.3061V10.5423C0.102259 7.8809 -0.102555 5.21948 0.102259 2.55806C0.307074 0.408455 1.84318 0.101368 3.68652 0.101368C9.0117 0.101368 14.3369 0.101368 19.5597 0.101368C22.2222 0.101368 24.9872 0.101368 27.6498 0.101368C28.8787 0.101368 30.1076 0.101368 31.3365 0.101368C32.463 0.101368 33.5895 -0.000993863 34.6135 0.613179C35.5352 1.12499 36.3545 2.04625 37.0713 2.86515C37.8906 3.68405 38.7098 4.50294 39.5291 5.32184C41.0652 6.95964 41.5772 8.90452 41.5772 11.0541C41.5772 16.1722 41.5772 21.2903 41.5772 26.4085C41.5772 31.7313 41.5772 37.0541 41.5772 42.2746C41.5772 44.8336 41.782 47.3927 41.5772 49.9518C41.4748 52.4085 39.2219 53.3297 38.1978 55.2746C37.0713 57.6289 39.7339 59.1644 40.9628 60.9045C41.5772 61.7234 41.5772 62.6447 41.5772 63.6683C41.5772 64.999 41.5772 66.2273 41.5772 67.5581C41.5772 72.8809 41.5772 78.2037 41.5772 83.5266C41.5772 88.747 41.5772 93.9675 41.5772 99.2903C41.5772 101.747 41.782 104.408 41.4748 106.865Z" fill="white"/>
<path d="M55.3 6.14178C55.3 4.70871 54.9928 2.86619 55.7096 1.53548C56.7337 -0.204678 59.4987 0.204771 61.1372 0.307133C62.9805 0.409495 65.0287 -0.102316 66.872 0.511857C67.7937 0.818944 68.5105 1.43312 68.7154 2.35438C69.125 3.99217 68.9202 5.93705 68.9202 7.57485C69.0226 11.2599 68.9202 14.9449 68.8178 18.63C68.6129 33.5749 68.7154 48.6221 68.7154 63.567C68.7154 67.3544 68.7154 71.1418 68.7154 75.0315C68.7154 77.5906 67.9985 82.1969 71.4804 82.7087C73.0165 82.9134 74.7574 82.7087 76.2935 82.7087C77.8296 82.7087 79.6729 83.0158 81.1066 82.504C83.974 81.5827 83.1548 76.8741 83.1548 74.6221C82.95 59.5749 83.0524 44.63 83.0524 29.5827C83.0524 22.0079 83.1548 14.4331 83.0524 6.85831C82.95 4.29926 82.3355 0.818944 85.8174 0.511857C87.4559 0.409495 89.0944 0.409495 90.6305 0.409495C91.9618 0.409495 93.8052 0.204771 95.1365 0.614219C96.5702 1.12603 96.775 2.86619 96.775 4.1969C96.775 5.93705 96.775 7.57485 96.775 9.31501V20.6772V42.9922V65.7166C96.775 69.504 96.775 73.189 96.775 76.9764C96.775 78.9213 96.775 80.8662 96.775 82.8111C96.775 84.5512 96.8774 86.2914 96.4677 87.9292C96.0581 89.3623 95.1365 90.5906 94.1124 91.6142C92.9859 92.7402 91.9618 93.9685 90.6305 94.8898C88.0703 96.5276 84.8957 96.1182 82.0283 96.1182C78.4441 96.0158 74.8598 96.1182 71.2755 96.1182C68.4081 96.1182 65.1311 96.63 62.3661 95.504C60.83 94.8898 59.8059 93.7638 58.7818 92.6378C57.7578 91.5119 56.5289 90.3859 55.9144 88.9528C55.1976 87.315 55.3 85.6772 55.3 83.937C55.3 82.0945 55.3 80.3544 55.3 78.5119C55.3 70.937 55.3 63.3623 55.3 55.7874C55.3 52.1024 55.3 48.4174 55.3 44.7323C55.3 37.2599 55.3 29.6851 55.3 22.2126C55.3 18.63 55.3 14.9449 55.3 11.3623C55.1976 9.62209 55.3 7.88194 55.3 6.14178ZM96.3653 115.567C95.7509 116.591 94.522 116.898 93.2931 116.898C91.6546 117 90.0161 116.898 88.48 116.898C86.1246 116.898 83.8716 116.898 81.5163 116.898C76.7031 116.898 71.7876 116.898 66.9744 116.898C64.6191 116.898 62.2637 116.898 60.0107 116.898C58.4746 116.898 56.4265 117.205 55.6072 115.465C54.8904 113.929 55.3 111.575 55.1976 109.937C55.1976 108.299 54.6856 105.638 55.7096 104.205C56.7337 102.772 59.2939 103.079 60.83 103.181C61.7517 103.181 62.5709 103.284 63.4926 103.284C64.6191 103.284 76.0887 103.284 76.0887 103.284C80.7994 103.284 85.6126 103.386 90.3233 103.284C91.9618 103.284 94.9316 102.772 96.1605 104.205C97.287 105.535 96.775 107.992 96.775 109.63C96.8774 111.37 97.3894 113.929 96.3653 115.567Z" fill="white"/>
<path d="M126.575 13.7165C125.039 14.0236 124.323 15.0472 124.118 16.4803C123.913 18.3228 124.015 20.2677 124.118 22.1102C124.118 26.1024 124.118 30.0945 124.118 34.189V58.3465C124.118 65.4095 124.118 72.5748 124.118 79.6378C124.118 83.2205 124.118 86.8032 124.118 90.3858C124.118 92.0236 124.015 93.7638 124.015 95.4016C124.015 97.0394 123.81 98.9843 124.22 100.622C124.732 103.283 127.6 103.079 129.75 103.079C131.286 103.079 132.72 103.079 134.256 103.079C135.587 103.079 137.123 103.079 137.943 101.85C138.66 100.724 138.455 99.0866 138.557 97.7559C138.557 95.9134 138.557 93.9685 138.557 92.126V81.378C138.557 67.0472 138.557 52.8189 138.557 38.4882C138.557 31.7323 138.557 24.9764 138.557 18.2205C138.557 16.378 138.25 14.126 136.099 13.8189C134.461 13.5118 132.822 13.7165 131.184 13.7165C129.545 13.7165 128.009 13.4095 126.575 13.7165ZM151.46 109.323C150.641 111.165 149.003 112.598 147.569 113.929C146.033 115.465 144.497 116.488 142.244 116.693C139.888 116.898 137.533 116.693 135.178 116.693C129.955 116.693 124.732 116.693 119.509 116.693C118.28 116.693 117.052 116.693 115.925 116.693C114.799 116.693 113.57 116.898 112.443 116.591C110.6 116.079 110.395 114.236 110.395 112.598C110.395 107.48 110.395 102.26 110.395 97.1417C110.395 86.8032 110.395 76.5669 110.395 66.2283C110.395 63.6693 110.395 61.0079 110.395 58.4488C110.395 48.0079 110.395 37.5669 110.395 27.0236C110.395 21.8032 110.395 16.4803 110.395 11.2598C110.395 8.80315 110.293 6.2441 110.395 3.7874C110.498 1.74016 111.112 0.409452 113.263 0.102365C115.515 -0.204722 117.871 0.204727 120.124 0.204727C122.684 0.204727 125.347 0.204727 127.907 0.204727C130.467 0.204727 133.027 0.102365 135.69 0.102365C138.148 0.102365 140.81 -0.204722 143.268 0.307089C145.521 0.716538 146.955 2.14961 148.491 3.7874C150.027 5.52756 151.563 6.96063 151.973 9.31496C152.28 11.6693 152.075 14.126 152.075 16.4803V24.2598V87.0079C152.075 92.2284 151.973 97.3465 152.075 102.567C152.177 104.819 152.382 107.173 151.46 109.323Z" fill="white"/>
<path d="M181.773 13.7165C180.237 14.0236 179.52 15.0472 179.315 16.4803C179.11 18.3228 179.213 20.2677 179.315 22.1102C179.315 26.1024 179.315 30.0945 179.315 34.189V58.3465C179.315 65.4095 179.315 72.5748 179.315 79.6378C179.315 83.2205 179.315 86.8032 179.315 90.3858C179.315 92.0236 179.213 93.7638 179.213 95.4016C179.213 97.0394 179.008 98.9843 179.417 100.622C179.93 103.283 182.797 103.079 184.947 103.079C186.484 103.079 187.917 103.079 189.453 103.079C190.785 103.079 192.321 103.079 193.14 101.85C193.857 100.724 193.652 99.0866 193.754 97.7559C193.754 95.9134 193.754 93.9685 193.754 92.126V81.378C193.754 67.0472 193.754 52.8189 193.754 38.4882C193.754 31.7323 193.754 24.9764 193.754 18.2205C193.754 16.378 193.447 14.126 191.297 13.8189C189.658 13.5118 188.02 13.7165 186.381 13.7165C184.743 13.7165 183.207 13.4095 181.773 13.7165ZM206.555 109.323C205.736 111.165 204.098 112.598 202.664 113.929C201.128 115.465 199.592 116.488 197.339 116.693C194.983 116.898 192.628 116.693 190.273 116.693C185.05 116.693 179.827 116.693 174.604 116.693C173.375 116.693 172.147 116.693 171.02 116.693C169.894 116.693 168.665 116.898 167.538 116.591C165.695 116.079 165.49 114.236 165.49 112.598C165.49 107.48 165.49 102.26 165.49 97.1417C165.49 86.8032 165.49 76.5669 165.49 66.2283C165.49 63.6693 165.49 61.0079 165.49 58.4488C165.49 48.0079 165.49 37.5669 165.49 27.0236C165.49 21.8032 165.49 16.4803 165.49 11.2598C165.49 8.80315 165.388 6.2441 165.49 3.7874C165.593 1.74016 166.207 0.409452 168.357 0.102365C170.61 -0.204722 172.966 0.204727 175.219 0.204727C177.779 0.204727 180.442 0.204727 183.002 0.204727C185.562 0.204727 188.122 0.102365 190.785 0.102365C193.242 0.102365 195.905 -0.204722 198.363 0.307089C200.616 0.716538 202.049 2.14961 203.586 3.7874C205.122 5.52756 206.658 6.96063 207.067 9.31496C207.375 11.6693 207.17 14.126 207.17 16.4803V24.2598V87.0079C207.17 92.2284 207.067 97.3465 207.17 102.567C207.272 104.819 207.477 107.173 206.555 109.323Z" fill="white"/>
<path d="M267.795 3.37788C267.181 6.34638 266.259 9.31489 265.542 12.2834C262.572 24.3621 259.5 36.3385 256.53 48.4173C254.994 54.4566 253.458 60.5984 252.025 66.6377C251.308 69.6062 250.898 72.37 250.898 75.4409C250.898 78.5117 250.898 81.685 250.898 84.7558C250.898 85.4724 250.898 93.2519 250.898 93.2519C250.898 99.5984 250.796 105.842 250.898 112.189C250.898 114.134 250.796 116.283 248.44 116.59C247.007 116.693 245.573 116.59 244.139 116.59C242.705 116.59 241.272 116.693 239.838 116.693C237.892 116.59 237.073 115.362 237.073 113.52C236.971 110.449 237.073 107.378 237.073 104.307C237.073 98.0629 237.073 91.8188 237.073 85.5747C237.073 79.5354 237.483 73.3936 236.254 67.4566C235.025 61.4173 233.489 55.4802 232.055 49.5432C229.188 37.3621 226.218 25.2834 223.35 13.1023C222.634 10.1338 221.917 7.06292 221.2 4.09442C220.995 3.07079 220.381 1.63772 221.302 0.818825C222.224 -0.102435 224.067 0.204651 225.296 0.204651C226.73 0.204651 228.164 0.204651 229.597 0.204651C230.826 0.204651 232.157 0.102289 233.284 0.409376C235.435 0.921187 235.639 3.27552 236.049 5.11804C237.483 11.1574 238.814 17.1968 240.248 23.3385C240.965 26.4094 241.681 29.5826 242.398 32.6535C242.705 34.0865 243.013 35.5196 243.32 36.8503C243.422 37.4645 243.627 39.9212 244.446 40.0236C245.266 40.1259 245.368 38.5905 245.47 38.0787C245.88 36.5432 246.29 35.0078 246.699 33.4724C247.519 30.4015 248.235 27.3306 249.055 24.2598C250.591 18.2204 252.127 12.181 253.663 6.24402C254.175 4.4015 254.277 1.433 256.428 0.6141C257.35 0.204651 258.476 0.307014 259.5 0.307014C261.036 0.307014 262.572 0.307014 264.109 0.307014C265.133 0.307014 266.771 -7.30008e-05 267.693 0.716462C268.205 1.12591 268 2.45662 267.795 3.37788Z" fill="white"/>
</g>
<defs>
<clipPath id="clip0">
<rect width="268" height="117" fill="white"/>
</clipPath>
</defs>
</svg>
